{"title":"Exorcismus 2010 1080p BDRip XviD ac3 (avi) [TFRG]","uid":6864322,"size":3549163082,"categoryP":"video","categoryS":"hd___movies","magnet":"?xt=urn:btih:832c0197c7e3a69b4a3b56c595d6bd8ece1a6039&amp;dn=Exorcismus+2010+1080p+BDRip+XviD+ac3+%28avi%29+%5BTFRG%5D&amp;tr=udp%3A%2F%2Ftracker.openbittorrent.com%3A80&amp;tr=udp%3A%2F%2Fopen.demonii.com%3A1337&amp;tr=udp%3A%2F%2Ftracker.coppersurfer.tk%3A6969&amp;tr=udp%3A%2F%2Fexodus.desync.com%3A6969","seeders":1,"leechers":0,"uploader":"grey.shadow","files":7,"time":1323033852,"description":"***************************************************************\n\n[IMG]http://www.torrentforce.org/imghost/3/greyshadow_tfbanner.png[/IMG]\n\n***************************************************************\n\n[IMG]http://www.torrentforce.org/imghost/4/greyshadow_exorcismus.png[/IMG]\n\n***************************************************************\n\nFILM TITLE: Exorcismus (2010) La posesiÃƒÂ³n de Emma Evans (original title)\n\n***************************************************************\n\nGenre: Horror   \n\nRelease: 29 December 2010 (Spain)\n\nDirector: Manuel Carballo\n\nWriter: David MuÃƒÂ±oz\n\nStars: Sophie Vavasseur, Stephen Billington and Richard Felix\n\nCountry: Spain\n\nLanguage: English\n\nPlot:\nA family allows their young daughter's exorcism to be recorded secretly.\n\nIMDB Rating: 5.2/10 from 919 users\n &lt;a href=&quot;\nhttp://www.imdb.com/title/tt1322306/&quot; rel=&quot;nofollow&quot; target=&quot;_NEW&quot;&gt;\nhttp://www.imdb.com/title/tt1322306/&lt;/a&gt; \n\n****************************************************************\n\n[IMG]http://www.torrentforce.org/imghost/4/greyshadow_exorcismus1080pxvidvdub.png[/IMG]\n[IMG]http://www.torrentforce.org/imghost/4/greyshadow_exorcismus1080pxvid1jl68t4d.png[/IMG]\n[IMG]http://www.torrentforce.org/imghost/4/greyshadow_exorcismus1080pxvid2.png[/IMG]\n[IMG]http://www.torrentforce.org/imghost/4/greyshadow_exorcismus1080pxvid3.png[/IMG]\n\n\n****************************************************************\n\n[IMG]http://www.torrentforce.org/imghost/2/greyshadow_mediainfo.png[/IMG]\nGeneral\nComplete name                    : Exorcismus 2010 1080p BDRip XviD ac3 (avi) [TFRG].avi\nFormat                           : AVI\nFormat/Info                      : Audio Video Interleave\nFormat profile                   : OpenDML\nFile size                        : 3.27 GiB\nDuration                         : 1h 40mn\nOverall bit rate                 : 4647 Kbps\nWriting library                  : VirtualDub build 32842/release\n\nVideo\nID                               : 0\nFormat                           : MPEG-4 Visual\nFormat profile                   : Simple@L5\nFormat settings, BVOP            : No\nFormat settings, QPel            : No\nFormat settings, GMC             : No warppoints\nFormat settings, Matrix          : Default (H.263)\nCodec ID                         : XVID\nCodec ID/Hint                    : XviD\nDuration                         : 1h 40mn\nBit rate                         : 3997 Kbps\nWidth                            : 1920 pixels\nHeight                           : 816 pixels\nDisplay aspect ratio             : 2.35:1\nFrame rate                       : 24.000 fps\nColor space                      : YUV\nChroma subsampling               : 4:2:0\nBit depth                        : 8 bits\nScan type                        : Progressive\nCompression mode                 : Lossy\nBits/(Pixel*Frame)               : 0.106\nStream size                      : 2.81 GiB (86%)\nWriting library                  : XviD 64\n\nAudio\nID                               : 1\nFormat                           : AC-3\nFormat/Info                      : Audio Coding 3\nMode extension                   : CM (complete main)\nCodec ID                         : 2000\nDuration                         : 1h 40mn\nBit rate mode                    : Constant\nBit rate                         : 640 Kbps\nChannel(s)                       : 6 channels\nChannel positions                : Front: L C R, Side: L R, LFE\nSampling rate                    : 48.0 KHz\nBit depth                        : 16 bits\nCompression mode                 : Lossy\nStream size                      : 462 MiB (14%)\nAlignment                        : Aligned on interleaves\nInterleave, duration             : 42 ms (1.00 video frame)\nInterleave, preload duration     : 512 ms\n\n****************************************************************\n\nVideo Source: Exorcismus 2011 1080p Blu-ray AVC DTS-HD MA 5.1-HDChina (20.2GB)\n\nThanks: (chdbits.org)\n\n****************************************************************\n\nMy Exorcismus encode is available in 720p xvid / 720p x264 / 1080p xvid / 1080p x264\n\n****************************************************************\n\nI provide a small sample, so please download this to check your \ncompatibility first if you are unsure.\n\n****************************************************************\n\n7th October 2011\n\nI am re-introducing my warning to all downloaders, please please\nplease use a proxy or vpn service, it is the only secure way to\nkeep your own ip address from being seen during downloading or\nuploading/seeding, this WILL stop isp letters, as for advice to \nwhich one then thats simple, vpntunnel.se server based in Sweden \nis the right one to use, I have cancelled my vpn and transfered \nto a Swedish one already !!! enough said. \n\n****************************************************************\n\nA big thanks to all the sites out there who care and share and\nwho make it possible for you to download this torrent for free.\n\nGreetz to Westy, Ripwyn, mustang, noir, Blackjesus, MXMG, The Stig \nand all the other outstanding members of our community of file \nsharers and a special mention to our friends at 1337x.\n\n****************************************************************","torrent":{"xt":"urn:btih:832c0197c7e3a69b4a3b56c595d6bd8ece1a6039","amp;dn":"Exorcismus+2010+1080p+BDRip+XviD+ac3+%28avi%29+%5BTFRG%5D","amp;tr":["udp%3A%2F%2Ftracker.openbittorrent.com%3A80","udp%3A%2F%2Fopen.demonii.com%3A1337","udp%3A%2F%2Ftracker.coppersurfer.tk%3A6969","udp%3A%2F%2Fexodus.desync.com%3A6969"],"infoHash":"832c0197c7e3a69b4a3b56c595d6bd8ece1a6039","infoHashBuffer":{"type":"Buffer","data":[131,44,1,151,199,227,166,155,74,59,86,197,149,214,189,142,206,26,96,57]},"announce":[],"urlList":[]}}